<?xml version="1.0" encoding="UTF-8"?>
<svg width="30px" height="30px" viewBox="0 0 30 30" version="1.1" xmlns="http://www.w3.org/2000/svg" xmlns:xlink="http://www.w3.org/1999/xlink">
    <!-- Generator: Sketch 55 (78076) - https://sketchapp.com -->
    <title>Element/Icon Logo/Github</title>
    <desc>Created with Sketch.</desc>
    <g id="Element/Icon-Logo/Github" stroke="none" stroke-width="1" fill="none" fill-rule="evenodd">
        <g id="icon-github" fill="#000000" fill-rule="nonzero">
            <path d="M15,0 C6.71630859,0 0,6.71630859 0,15 C0,21.628418 4.2975,27.2497559 10.2584766,29.2327734 C11.0083008,29.3701172 11.2820508,28.9068457 11.2820508,28.5113379 C11.2820508,28.1542676 11.2683105,26.9714355 11.2609863,25.7189941 C7.08984375,26.6253516 6.20818359,23.9501953 6.20818359,23.9501953 C5.52521484,22.2180176 4.54283203,21.7565918 4.54283203,21.7565918 C3.17961914,20.826416 4.64625,20.8447266 4.64625,20.8447266 C6.15228516,20.949082 6.94517578,22.3901367 6.94517578,22.3901367 C8.28369141,24.6826172 10.4571387,24.0197754 11.3104102,23.6352539 C11.4467578,22.668457 11.8349414,22.0056152 12.2625586,21.6320801 C8.93279297,21.2530664 5.43,19.9658203 5.43,14.218125 C5.43,12.5793164 6.0150293,11.2426758 6.97265625,10.1925586 C6.81975586,9.81169922 6.30339844,8.28550781 7.12095703,6.22101563 C7.12095703,6.22101563 8.37890625,5.81818359 11.2463086,7.75910156 C12.4419727,7.42494141 13.7246484,7.26014648 14.9999707,7.25463867 C16.2743848,7.26014648 17.5579395,7.42675781 18.7554785,7.76091797 C21.6174316,5.81818359 22.8771973,6.22283203 22.8771973,6.22283203 C23.6975098,8.28916992 23.1811523,9.81351563 23.0273438,10.1925586 C23.9886328,11.2426758 24.5690918,12.5793457 24.5690918,14.218125 C24.5690918,19.9804688 21.060791,21.249375 17.7191309,21.6210938 C18.2593066,22.0861816 18.7371973,22.9980469 18.7371973,24.3969727 C18.7371973,26.4019922 18.717041,28.0187988 18.717041,28.5131836 C18.717041,28.9123535 18.9898535,29.3792578 19.7497559,29.2327734 C25.7061914,27.2460938 30,21.6247559 30,15 C30,6.71630859 23.2836914,0 15,0 Z" id="Shape"></path>
        </g>
    </g>
</svg>