<?xml version="1.0" encoding="UTF-8"?>
<svg width="12px" height="15px" viewBox="0 0 12 15" version="1.1" xmlns="http://www.w3.org/2000/svg" xmlns:xlink="http://www.w3.org/1999/xlink">
    <!-- Generator: Sketch 55.2 (78181) - https://sketchapp.com -->
    <title>Element/Icon/Message</title>
    <desc>Created with Sketch.</desc>
    <g id="Symbols-Page" stroke="none" stroke-width="1" fill="none" fill-rule="evenodd">
        <g id="Module/Card/Trip-Info" transform="translate(-276.000000, -43.000000)" fill="#33AC2E">
            <g id="Module/Trip-Info">
                <g id="Group-2" transform="translate(24.000000, 30.000000)">
                    <g id="Group" transform="translate(242.000000, 5.000000)">
                        <g id="Element/Misc/Circle-Icon">
                            <g id="Element/Icon/Marker" transform="translate(8.000000, 8.000000)">
                                <path d="M7.52631579,2.50674327 C7.52631579,2.50674327 3.57894737,7.305904 3.57894737,9.4698308 C3.57894737,11.6337576 5.34624441,13.3879669 7.52631579,13.3879669 C9.70638717,13.3879669 11.4736842,11.6337576 11.4736842,9.4698308 C11.4736842,7.305904 7.52631579,2.50674327 7.52631579,2.50674327 Z M6.31715771,1.47007915 L7.52631579,0 L8.73547387,1.47007915 C8.77143936,1.51380554 8.83446727,1.59158579 8.92074541,1.69986004 C9.06206558,1.87720895 9.21890061,2.07780733 9.38746078,2.29814129 C9.86893234,2.92749837 10.3505212,3.59220939 10.802481,4.26557749 C11.1286084,4.7514696 11.427693,5.22499674 11.694112,5.68189478 C12.5605272,7.16776243 13.0526316,8.39223175 13.0526316,9.4698308 C13.0526316,12.5343803 10.5686164,15 7.52631579,15 C4.48401519,15 2,12.5343803 2,9.4698308 C2,8.39223175 2.49210443,7.16776243 3.35851961,5.68189478 C3.62493862,5.22499674 3.92402322,4.7514696 4.25015053,4.26557749 C4.70211038,3.59220939 5.18369924,2.92749837 5.6651708,2.29814129 C5.83373097,2.07780733 5.990566,1.87720895 6.13188617,1.69986004 C6.21816431,1.59158579 6.28119221,1.51380554 6.31715771,1.47007915 Z M7.52631579,11.8421053 C6.21827296,11.8421053 5.15789474,10.781727 5.15789474,9.47368421 C5.15789474,8.16564138 6.21827296,7.10526316 7.52631579,7.10526316 C8.83435862,7.10526316 9.89473684,8.16564138 9.89473684,9.47368421 C9.89473684,10.781727 8.83435862,11.8421053 7.52631579,11.8421053 Z M7.52631579,10.2631579 C7.96233007,10.2631579 8.31578947,9.90969849 8.31578947,9.47368421 C8.31578947,9.03766993 7.96233007,8.68421053 7.52631579,8.68421053 C7.09030151,8.68421053 6.73684211,9.03766993 6.73684211,9.47368421 C6.73684211,9.90969849 7.09030151,10.2631579 7.52631579,10.2631579 Z" id="🎨-Icon-color" transform="translate(7.526316, 7.500000) scale(1, -1) translate(-7.526316, -7.500000) "></path>
                            </g>
                        </g>
                    </g>
                </g>
            </g>
        </g>
    </g>
</svg>