<?xml version="1.0" encoding="UTF-8"?>
<svg width="30px" height="30px" viewBox="0 0 30 30" version="1.1" xmlns="http://www.w3.org/2000/svg" xmlns:xlink="http://www.w3.org/1999/xlink">
    <!-- Generator: Sketch 55 (78076) - https://sketchapp.com -->
    <title>Element/Icon Logo/Medium</title>
    <desc>Created with Sketch.</desc>
    <g id="Element/Icon-Logo/Medium" stroke="none" stroke-width="1" fill="none" fill-rule="evenodd">
        <g id="Medium_icon" transform="translate(4.000000, 5.000000)" fill="#231F20" fill-rule="nonzero">
            <g id="g10" transform="translate(11.500000, 9.708334) scale(-1, 1) rotate(-180.000000) translate(-11.500000, -9.708334) translate(0.000000, 0.208334)">
                <g id="g12">
                    <path d="M22.9999994,15.5249996 L22.0903494,15.5249996 C21.7526328,15.5249996 21.2749995,15.0378213 21.2749995,14.7259221 L21.2749995,3.42124991 C21.2749995,3.10896742 21.7526328,2.68333327 22.0903494,2.68333327 L22.9999994,2.68333327 L23,0 L14.758333,0 L14.758333,2.68333327 L16.4833329,2.68333327 L16.4833329,14.5666663 L16.3988079,14.5666663 L12.370588,0 L9.25188394,0 L5.27562487,14.5666663 L5.17499987,14.5666663 L5.17499987,2.68333327 L6.89999983,2.68333327 L6.89999983,0 L0,0 L0,2.68333327 L0.883539228,2.68333327 C1.24740497,2.68333327 1.72499996,3.10896742 1.72499996,3.42124991 L1.72499996,14.7259221 C1.72499996,15.0378213 1.24740497,15.5249996 0.883539228,15.5249996 L0,15.5249996 L0,18.2083329 L8.62814312,18.2083329 L11.4609189,7.66666648 L11.5388505,7.66666648 L14.3978271,18.2083329 L22.9999994,18.2083329 L22.9999994,15.5249996" id="path14"></path>
                </g>
            </g>
        </g>
    </g>
</svg>