<?xml version="1.0" encoding="UTF-8"?>
<svg width="20px" height="20px" viewBox="0 0 20 20" version="1.1" xmlns="http://www.w3.org/2000/svg" xmlns:xlink="http://www.w3.org/1999/xlink">
    <!-- Generator: Sketch 53.2 (72643) - https://sketchapp.com -->
    <title>Nav/Menu/List  Copy 3</title>
    <desc>Created with Sketch.</desc>
    <defs>
        <path d="M21.5380711,10.5262564 L20.4568528,10.4133258 C20.3299492,9.92772445 20.1573604,9.4647092 19.928934,9.02428007 L20.6142132,8.1038961 C20.7817259,7.87803501 20.7664975,7.55618295 20.5837563,7.34726143 L19.2335025,5.82834557 C19.0507614,5.61942405 18.751269,5.60248447 18.5482234,5.78881988 L17.7208122,6.55110107 C17.3299492,6.30265387 16.9086294,6.10502541 16.4771574,5.96386222 L16.3756345,4.76679842 C16.3502538,4.47882552 16.1319797,4.25861095 15.8680203,4.25861095 L14.1827411,4.25861095 L14.1827411,2.56465274 C14.1827411,2.25409373 13.9543147,2 13.6751269,2 C13.3959391,2 13.1675127,2.25409373 13.1675127,2.56465274 L13.1675127,5.38791643 L11.248731,5.38791643 C10.4314721,5.38791643 9.65482234,5.81705251 9.15736041,6.53980802 L7.06598985,9.60587239 L3.54822335,10.6730661 C2.63451777,10.9497459 2.00507614,11.8701299 2,12.9260305 L2,14.4223602 C2.00507614,15.7097685 2.94923858,16.7487295 4.10659898,16.7487295 L4.38071066,16.7487295 C4.76142132,18.3241107 6.21827411,19.2501412 7.63451777,18.8266516 C8.54314721,18.5499718 9.25888325,17.7594579 9.50253807,16.7487295 L13.1675127,16.7487295 L13.1675127,21.4353473 C13.1675127,21.7459063 13.3959391,22 13.6751269,22 C13.9543147,22 14.1827411,21.7459063 14.1827411,21.4353473 L14.1827411,20.0801807 L15.8680203,20.0801807 C16.1319797,20.0801807 16.3502538,19.8599661 16.3756345,19.5663467 L16.4771574,18.3636364 C16.9137056,18.2224732 17.3299492,18.0304912 17.7258883,17.782044 L18.5532995,18.5443252 C18.7563452,18.7306606 19.0507614,18.7137211 19.2335025,18.5104461 L20.5989848,16.9915302 C20.7817259,16.7882552 20.7969543,16.4551101 20.6294416,16.229249 L19.9441624,15.308865 C20.1675127,14.8684359 20.3451777,14.4054207 20.4720812,13.9254658 L21.5380711,13.8125353 C21.7969543,13.7843027 22,13.541502 22,13.2478826 L22,11.0852626 C22,10.7972897 21.7969543,10.554489 21.5380711,10.5262564 Z M6.93908629,17.8046302 C6.03553299,17.8046302 5.29949239,16.9858837 5.29949239,15.9808018 C5.29949239,14.9757199 6.03553299,14.1569735 6.93908629,14.1569735 C7.84263959,14.1569735 8.5786802,14.9757199 8.5786802,15.9808018 C8.5786802,16.9858837 7.84771574,17.8046302 6.93908629,17.8046302 Z M13.1675127,15.6138217 L9.57360406,15.6137775 C9.39593909,13.9932242 8.07106599,12.8469791 6.61928934,13.038961 C5.41116751,13.2027103 4.45685279,14.2642575 4.30456853,15.6137775 L4.10152284,15.6137775 C3.50253807,15.6194241 3.01522843,15.083004 3.01015228,14.4167137 L3.01015228,12.9260305 C3.01522843,12.3839639 3.34010152,11.9096556 3.81218274,11.7628458 L7.49746193,10.6448334 C7.60406091,10.6109543 7.70050761,10.5431959 7.76649746,10.4415584 L9.96954315,7.22868436 C10.2741117,6.7826087 10.751269,6.52286844 11.2538071,6.52286844 L13.1675127,6.52286844 L13.1675127,15.6138217 Z M14.1827411,9.76962168 C15.3705584,9.32919255 16.6548223,10.0463015 17.0507614,11.3732355 C17.4467005,12.7001694 16.8020305,14.1230943 15.6091371,14.5635234 C15.1472081,14.7329193 14.6446701,14.7329193 14.1827411,14.5635234 L14.1827411,9.76962168 L14.1827411,9.76962168 Z M20.9847716,12.728402 L20.9847716,12.728402 L20.0203046,12.8300395 C19.8020305,12.8526256 19.6192893,13.0333145 19.5736041,13.2704687 C19.4467005,13.9028797 19.2182741,14.5014116 18.8984772,15.0434783 C18.7766497,15.2523998 18.7918782,15.5177866 18.9340102,15.7097685 L19.5532995,16.5454545 L18.8426396,17.3359684 L18.0913706,16.6527386 C17.9187817,16.4946358 17.6751269,16.4776962 17.4873096,16.6188594 C17.0050761,16.9745906 16.4670051,17.2286844 15.8984772,17.364201 C15.680203,17.4150198 15.5228426,17.6182947 15.5025381,17.8610954 L15.4111675,18.9452287 L14.1827411,18.9452287 L14.1827411,15.7323546 C15.9543147,16.1727837 17.7106599,14.9305477 18.1015228,12.9599097 C18.4974619,10.9892716 17.3807107,9.03557312 15.6091371,8.59514399 C15.1370558,8.47656691 14.6497462,8.47656691 14.1827411,8.59514399 L14.1827411,5.39356296 L15.4060914,5.39356296 L15.5025381,6.47204969 C15.5228426,6.71485037 15.6852792,6.91812535 15.8984772,6.9689441 C16.4670051,7.11010728 17.0050761,7.36420102 17.4923858,7.71428571 C17.680203,7.84980237 17.9187817,7.83286279 18.0913706,7.67476002 L18.8375635,6.98588368 L19.5380711,7.77075099 L18.9137056,8.61208357 C18.7715736,8.8040655 18.7563452,9.07509881 18.8832487,9.28402033 C19.2030457,9.82044043 19.4314721,10.4189723 19.5532995,11.0513834 C19.6040609,11.2941841 19.7817259,11.4692264 20.0050761,11.4918125 L20.9847716,11.5990966 L20.9847716,12.728402 L20.9847716,12.728402 Z" id="path-1"></path>
    </defs>
    <g id="Symbols-Page" stroke="none" stroke-width="1" fill="none" fill-rule="evenodd">
        <g id="Component/Navigation/Left-Bar" transform="translate(-30.000000, -362.000000)">
            <g id="Group" transform="translate(0.000000, 176.000000)">
                <g id="Nav/Menu/Small" transform="translate(0.000000, 168.000000)">
                    <g id="icon-service" transform="translate(28.000000, 16.000000)">
                        <mask id="mask-2" fill="white">
                            <use xlink:href="#path-1"></use>
                        </mask>
                        <use id="Shape" fill="#BFC5D2" fill-rule="evenodd" xlink:href="#path-1"></use>
                    </g>
                </g>
            </g>
        </g>
    </g>
</svg>