<?xml version="1.0" encoding="UTF-8"?>
<svg width="30px" height="30px" viewBox="0 0 30 30" version="1.1" xmlns="http://www.w3.org/2000/svg" xmlns:xlink="http://www.w3.org/1999/xlink">
    <!-- Generator: Sketch 55 (78076) - https://sketchapp.com -->
    <title>Element/Icon Logo/Twitter</title>
    <desc>Created with Sketch.</desc>
    <g id="Element/Icon-Logo/Twitter" stroke="none" stroke-width="1" fill="none" fill-rule="evenodd">
        <g id="Twitter_Bird" transform="translate(3.000000, 5.000000)" fill="#1DA1F2" fill-rule="nonzero">
            <path d="M7.89323083,20.265585 C17.2649292,20.265585 22.3895867,12.5016142 22.3895867,5.76923083 C22.3895867,5.5487075 22.385095,5.32917917 22.3752033,5.11064333 C23.3700358,4.39146333 24.2347417,3.4939775 24.9166717,2.47232333 C24.0037892,2.87810417 23.0213733,3.15127417 21.9907792,3.27444917 C23.04273,2.643675 23.8503175,1.6458625 24.231265,0.456333333 C23.2468617,1.0399225 22.1566675,1.46408083 20.9959458,1.69304583 C20.0661767,0.7026825 18.7425467,0.0833333333 17.2768692,0.0833333333 C14.4632242,0.0833333333 12.1815142,2.36504333 12.1815142,5.17769417 C12.1815142,5.57751417 12.2262142,5.96640917 12.3136292,6.33940833 C8.0790075,6.12633667 4.32416833,4.09892333 1.8115075,1.0160825 C1.37393917,1.76903667 1.12163083,2.643675 1.12163083,3.57692083 C1.12163083,5.34457583 2.0211025,6.90511833 3.38893583,7.81800083 C2.55303833,7.79217417 1.7678,7.56271083 1.08139917,7.18077083 C1.08064917,7.2021475 1.08064917,7.22298833 1.08064917,7.245835 C1.08064917,9.71329917 2.83688083,11.7734933 5.1682575,12.2403642 C4.74012667,12.3570825 4.289645,12.4196625 3.82476083,12.4196625 C3.4969575,12.4196625 3.1775975,12.3873992 2.86717833,12.3277792 C3.51583083,14.3522125 5.39672583,15.82534 7.6267825,15.866565 C5.8829675,17.2334042 3.68618917,18.04745 1.29868917,18.04745 C0.887940833,18.04745 0.482160833,18.0240867 0.0833333333,17.9769217 C2.33822333,19.4222375 5.01578,20.265585 7.89349417,20.265585" id="path3611"></path>
        </g>
    </g>
</svg>