<?xml version="1.0" encoding="UTF-8"?>
<svg width="20px" height="16px" viewBox="0 0 20 16" version="1.1" xmlns="http://www.w3.org/2000/svg" xmlns:xlink="http://www.w3.org/1999/xlink">
    <!-- Generator: Sketch 53.2 (72643) - https://sketchapp.com -->
    <title>Nav/Menu/List  Copy 2</title>
    <desc>Created with Sketch.</desc>
    <defs>
        <path d="M21.4278607,8.73191333 L18.60199,4.7308847 C18.2686567,4.25618639 17.8308458,4 17.3781095,4 L16.721393,4 L11.6965174,4 L11.0746269,4 C10.5771144,4 10.1044776,4.30893065 9.76616915,4.8589779 L7.37810945,8.73191333 C7.22885572,8.98056483 7.01492537,9.11619292 6.7960199,9.12372781 L4.65671642,9.12372781 C3.18905473,9.11619292 2,10.9170325 2,13.1322913 L2,14.7070842 C2,16.1989931 2.80099502,17.412111 3.79104478,17.412111 L4.05970149,17.412111 C4.41791045,19.3109043 5.72139303,20.4034639 6.97512438,19.8609515 C7.75621891,19.5218813 8.3681592,18.5950894 8.5920398,17.412111 L15.4278607,17.412111 C15.7860697,19.3109043 17.0895522,20.4034639 18.3432836,19.8609515 C19.1243781,19.5218813 19.7363184,18.5950894 19.960199,17.412111 L20.2039801,17.412111 C21.1890547,17.4196459 21.9950249,16.206528 22,14.714619 L22,10.7135904 C21.9950249,9.96010103 21.7860697,9.24428612 21.4278607,8.73191333 Z M17.3681592,5.50697877 C17.5771144,5.50697877 17.7761194,5.62753707 17.920398,5.8385141 L20.2338308,9.12372781 L17.5074627,9.12372781 L16.4029851,5.50697877 L17.3681592,5.50697877 Z M16.4179104,9.12372781 L13.6368159,9.12372781 L13.6368159,5.50697877 L15.3134328,5.50697877 L16.4179104,9.12372781 Z M6.31840796,18.5046706 C5.56716418,18.5046706 4.95522388,17.5778787 4.95522388,16.4401097 C4.95522388,15.3023408 5.56716418,14.3755488 6.31840796,14.3755488 C7.06965174,14.3755488 7.68159204,15.3023408 7.68159204,16.4401097 C7.68159204,17.5854136 7.06965174,18.5046706 6.31840796,18.5046706 Z M12.641791,15.8975974 L8.65174129,15.8975974 C8.46268657,13.9460599 7.26368159,12.6048488 5.97512438,12.8911747 C4.95024876,13.1247564 4.14427861,14.3454092 3.99004975,15.8975974 L3.79104478,15.8975974 C3.35323383,15.9051323 2.99502488,15.3701548 2.99004975,14.7070842 L2.99004975,13.1322913 C2.99004975,11.7458709 3.73631841,10.6231717 4.65174129,10.6231717 L6.7960199,10.6231717 C6.83084577,10.6231717 6.86069652,10.6231717 6.89552239,10.6156368 C6.91542289,10.6156368 6.93034826,10.6231717 6.95024876,10.6231717 L12.641791,10.6231717 L12.641791,15.8975974 Z M12.641791,9.12372781 L8.50248756,9.12372781 L10.4925373,5.89879325 C10.641791,5.65014175 10.8557214,5.51451366 11.0746269,5.50697877 L12.641791,5.50697877 L12.641791,9.12372781 Z M15.7263682,4 L12.6915423,4 L15.7263682,4 Z M17.6915423,18.5046706 C16.9402985,18.5046706 16.3283582,17.5778787 16.3283582,16.4401097 C16.3283582,15.3023408 16.9402985,14.3755488 17.6915423,14.3755488 C18.4427861,14.3755488 19.0547264,15.3023408 19.0547264,16.4401097 C19.0547264,17.5854136 18.4427861,18.5046706 17.6915423,18.5046706 Z M21.0049751,14.7070842 C21,15.3701548 20.641791,15.9051323 20.2089552,15.9051323 L20.0248756,15.9051323 C19.8358209,13.9535948 18.6368159,12.6048488 17.3482587,12.8987096 C16.3233831,13.1322913 15.5174129,14.3529441 15.3631841,15.9051323 L13.6368159,15.9051323 L13.6368159,10.6307066 L20.9154229,10.6307066 C20.9452736,10.6307066 20.9701493,10.6231717 21,10.6156368 C21,10.6533113 21.0049751,10.6834508 21.0049751,10.7211253 L21.0049751,14.7070842 Z" id="path-1"></path>
    </defs>
    <g id="Symbols-Page" stroke="none" stroke-width="1" fill="none" fill-rule="evenodd">
        <g id="Component/Navigation/Left-Bar" transform="translate(-30.000000, -308.000000)">
            <g id="Group" transform="translate(0.000000, 176.000000)">
                <g id="Nav/Menu/Small" transform="translate(0.000000, 112.000000)">
                    <g id="icon-vehicles" transform="translate(28.000000, 16.000000)">
                        <mask id="mask-2" fill="white">
                            <use xlink:href="#path-1"></use>
                        </mask>
                        <use id="Shape" fill="#BFC5D2" fill-rule="evenodd" xlink:href="#path-1"></use>
                    </g>
                </g>
            </g>
        </g>
    </g>
</svg>