<?xml version="1.0" encoding="UTF-8"?>
<svg width="16px" height="16px" viewBox="0 0 16 16" version="1.1" xmlns="http://www.w3.org/2000/svg" xmlns:xlink="http://www.w3.org/1999/xlink">
    <!-- Generator: Sketch 53.2 (72643) - https://sketchapp.com -->
    <title>Element/Icon/Dynamic</title>
    <desc>Created with Sketch.</desc>
    <g id="Element/Icon/Dynamic" stroke="none" stroke-width="1" fill="none" fill-rule="evenodd">
        <path d="M3.85359469,12.743002 C4.27469322,13.6728646 5.33508808,13.6254312 5.67337999,12.6575744 L7.2842934,8.04873351 L9.00506198,13.2108715 C9.35805001,14.2698012 10.5110862,14.1829376 10.6957867,13.0747344 L12.116487,4.55053266 L13.6737727,7.66510404 C13.8466619,8.01088245 14.2671251,8.15103683 14.6129035,7.97814763 C14.9586819,7.80525842 15.0988363,7.38479525 14.9259471,7.03901684 L12.7200533,2.62722939 C12.2465033,1.68012942 11.1496062,1.83611075 10.9740642,2.88936304 L9.66278915,10.7570134 L8.18487368,6.32341106 C7.84907945,5.31606108 6.75307901,5.3255883 6.40665235,6.31671875 L4.69626594,11.210153 L4.0265171,9.73122493 C3.63638169,8.86973455 2.62733158,8.80536701 2.14347327,9.62783887 L1.09677219,11.407042 C0.90074681,11.7402498 1.01195513,12.169278 1.34516293,12.3653034 C1.67837072,12.5613288 2.10739897,12.4501205 2.30342435,12.1169127 L3.01912767,10.9003461 L3.85359469,12.743002 Z" id="🎨-Icon-color" fill="#2E5BFF"></path>
    </g>
</svg>