<?xml version="1.0" encoding="UTF-8"?>
<svg width="16px" height="16px" viewBox="0 0 16 16" version="1.1" xmlns="http://www.w3.org/2000/svg" xmlns:xlink="http://www.w3.org/1999/xlink">
    <!-- Generator: Sketch 53.2 (72643) - https://sketchapp.com -->
    <title>Element/Icon/Energy</title>
    <desc>Created with Sketch.</desc>
    <g id="Element/Icon/Energy" stroke="none" stroke-width="1" fill="none" fill-rule="evenodd">
        <path d="M13.3951889,6.03461212 C13.2907404,5.81018788 13.0656798,5.66666667 12.8181768,5.66666667 L9.31075254,5.66666667 L11.6580859,1.97800606 C11.7827707,1.78204848 11.7907889,1.53373939 11.6790434,1.33014545 C11.567298,1.12655152 11.3534798,1 11.1212071,1 L7.30302527,1 C7.0759283,1 6.86605557,1.12099394 6.75231618,1.31750303 L2.08564951,9.37810909 C1.97165557,9.575 1.97144345,9.81770909 2.08505557,10.0148121 C2.19871012,10.2119152 2.40887981,10.3333333 2.6363586,10.3333333 L6.46985557,10.3333333 L5.41633436,14.1961879 C5.33772224,14.4843758 5.47017072,14.7884303 5.73468587,14.9271576 C5.8283586,14.9762848 5.92966769,15 6.03000103,15 C6.21297678,15 6.39281315,14.9210909 6.51703133,14.773497 L13.3049101,6.71289091 C13.4643828,6.52359394 13.499595,6.25899394 13.3951889,6.03461212 Z M7.40437678,11.7440242 L7.9169889,9.86441818 C7.96917072,9.67308485 7.92916466,9.46834545 7.80876466,9.31069697 C7.68836466,9.15309091 7.5013586,9.06060606 7.30302527,9.06060606 L3.74011012,9.06060606 L7.66995254,2.27272727 L9.96196466,2.27272727 L7.61463133,5.96138788 C7.4899889,6.15734545 7.4819283,6.40565455 7.59367375,6.60929091 C7.70546163,6.81284242 7.91927981,6.93939394 8.15151012,6.93939394 L11.4503768,6.93939394 L7.40437678,11.7440242 Z" id="🎨-Icon-color" fill="#2E5BFF"></path>
    </g>
</svg>