<svg
  width="102"
  height="28"
  viewBox="0 0 102 28"
  fill="none"
  xmlns="http://www.w3.org/2000/svg"
>
  <path
    d="M32.75 19C32.56 19 32.4143 18.962 32.313 18.886C32.2117 18.7973 32.1293 18.677 32.066 18.525L28.513 9.709L28.475 9.538C28.475 9.424 28.513 9.329 28.589 9.253C28.6777 9.16433 28.779 9.12 28.893 9.12H30.432C30.6727 9.12 30.8373 9.24033 30.926 9.481L33.453 16.15L35.98 9.481C36.018 9.39233 36.075 9.31 36.151 9.234C36.2397 9.158 36.3473 9.12 36.474 9.12H38.032C38.1333 9.12 38.222 9.16433 38.298 9.253C38.3867 9.329 38.431 9.424 38.431 9.538C38.431 9.614 38.4247 9.671 38.412 9.709L34.84 18.525C34.7767 18.677 34.6943 18.7973 34.593 18.886C34.4917 18.962 34.346 19 34.156 19H32.75ZM43.5926 19.19C42.1866 19.19 41.0656 18.7847 40.2296 17.974C39.4063 17.1507 38.9693 15.998 38.9186 14.516L38.8996 14.041L38.9186 13.566C38.982 12.122 39.4253 10.9883 40.2486 10.165C41.0846 9.34167 42.1993 8.93 43.5926 8.93C45.0873 8.93 46.24 9.386 47.0506 10.298C47.874 11.21 48.2856 12.426 48.2856 13.946V14.345C48.2856 14.4717 48.2413 14.5793 48.1526 14.668C48.064 14.7567 47.95 14.801 47.8106 14.801H41.5026V14.953C41.528 15.6497 41.718 16.2387 42.0726 16.72C42.44 17.1887 42.9403 17.423 43.5736 17.423C44.321 17.423 44.9226 17.1317 45.3786 16.549C45.4926 16.4097 45.5813 16.321 45.6446 16.283C45.7206 16.245 45.8283 16.226 45.9676 16.226H47.6016C47.7156 16.226 47.8106 16.264 47.8866 16.34C47.9753 16.4033 48.0196 16.4857 48.0196 16.587C48.0196 16.891 47.836 17.252 47.4686 17.67C47.114 18.0753 46.601 18.43 45.9296 18.734C45.2583 19.038 44.4793 19.19 43.5926 19.19ZM45.7016 13.205V13.148C45.7016 12.4007 45.5116 11.799 45.1316 11.343C44.7643 10.887 44.2513 10.659 43.5926 10.659C42.934 10.659 42.421 10.887 42.0536 11.343C41.6863 11.799 41.5026 12.4007 41.5026 13.148V13.205H45.7016ZM50.3024 19C50.1758 19 50.0681 18.9557 49.9794 18.867C49.8908 18.7783 49.8464 18.6707 49.8464 18.544V5.966C49.8464 5.82667 49.8908 5.719 49.9794 5.643C50.0681 5.55433 50.1758 5.51 50.3024 5.51H51.8794C52.0188 5.51 52.1264 5.55433 52.2024 5.643C52.2911 5.719 52.3354 5.82667 52.3354 5.966V18.544C52.3354 18.6707 52.2911 18.7783 52.2024 18.867C52.1264 18.9557 52.0188 19 51.8794 19H50.3024ZM58.7508 19.19C57.2688 19.19 56.1224 18.81 55.3118 18.05C54.5011 17.2773 54.0641 16.226 54.0008 14.896L53.9818 14.06L54.0008 13.224C54.0641 11.9067 54.5074 10.8617 55.3308 10.089C56.1541 9.31633 57.2941 8.93 58.7508 8.93C60.2074 8.93 61.3474 9.31633 62.1708 10.089C62.9941 10.8617 63.4374 11.9067 63.5008 13.224C63.5134 13.376 63.5198 13.6547 63.5198 14.06C63.5198 14.4653 63.5134 14.744 63.5008 14.896C63.4374 16.226 63.0004 17.2773 62.1898 18.05C61.3791 18.81 60.2328 19.19 58.7508 19.19ZM58.7508 17.309C59.4221 17.309 59.9414 17.1 60.3088 16.682C60.6761 16.2513 60.8788 15.6243 60.9168 14.801C60.9294 14.6743 60.9358 14.4273 60.9358 14.06C60.9358 13.6927 60.9294 13.4457 60.9168 13.319C60.8788 12.4957 60.6761 11.875 60.3088 11.457C59.9414 11.0263 59.4221 10.811 58.7508 10.811C58.0794 10.811 57.5601 11.0263 57.1928 11.457C56.8254 11.875 56.6228 12.4957 56.5848 13.319L56.5658 14.06L56.5848 14.801C56.6228 15.6243 56.8254 16.2513 57.1928 16.682C57.5601 17.1 58.0794 17.309 58.7508 17.309ZM69.4249 19.19C68.0316 19.19 66.9169 18.8037 66.0809 18.031C65.2576 17.2583 64.8206 16.188 64.7699 14.82L64.7509 14.06L64.7699 13.3C64.8206 11.932 65.2576 10.8617 66.0809 10.089C66.9169 9.31633 68.0316 8.93 69.4249 8.93C70.4129 8.93 71.2489 9.10733 71.9329 9.462C72.6296 9.81667 73.1426 10.2537 73.4719 10.773C73.8139 11.2797 73.9976 11.761 74.0229 12.217C74.0356 12.3437 73.9912 12.4513 73.8899 12.54C73.8012 12.6287 73.6936 12.673 73.5669 12.673H71.8949C71.7682 12.673 71.6669 12.6477 71.5909 12.597C71.5276 12.5337 71.4642 12.4323 71.4009 12.293C71.2109 11.799 70.9576 11.4443 70.6409 11.229C70.3369 11.0137 69.9442 10.906 69.4629 10.906C68.8169 10.906 68.3102 11.115 67.9429 11.533C67.5756 11.9383 67.3792 12.559 67.3539 13.395L67.3349 14.098L67.3539 14.725C67.4046 16.3843 68.1076 17.214 69.4629 17.214C69.9569 17.214 70.3559 17.1063 70.6599 16.891C70.9639 16.6757 71.2109 16.321 71.4009 15.827C71.4642 15.6877 71.5276 15.5927 71.5909 15.542C71.6669 15.4787 71.7682 15.447 71.8949 15.447H73.5669C73.6936 15.447 73.8012 15.4913 73.8899 15.58C73.9912 15.6687 74.0356 15.7763 74.0229 15.903C73.9976 16.3463 73.8202 16.8213 73.4909 17.328C73.1616 17.8347 72.6549 18.2717 71.9709 18.639C71.2869 19.0063 70.4382 19.19 69.4249 19.19ZM75.9094 7.486C75.7827 7.486 75.6751 7.44167 75.5864 7.353C75.4977 7.26433 75.4534 7.15667 75.4534 7.03V5.662C75.4534 5.53533 75.4977 5.42767 75.5864 5.339C75.6751 5.25033 75.7827 5.206 75.9094 5.206H77.6384C77.7651 5.206 77.8727 5.25033 77.9614 5.339C78.0627 5.42767 78.1134 5.53533 78.1134 5.662V7.03C78.1134 7.15667 78.0691 7.26433 77.9804 7.353C77.8917 7.44167 77.7777 7.486 77.6384 7.486H75.9094ZM75.9854 19C75.8587 19 75.7511 18.9557 75.6624 18.867C75.5737 18.7783 75.5294 18.6707 75.5294 18.544V9.576C75.5294 9.44933 75.5737 9.34167 75.6624 9.253C75.7511 9.16433 75.8587 9.12 75.9854 9.12H77.5624C77.7017 9.12 77.8094 9.16433 77.8854 9.253C77.9741 9.329 78.0184 9.43667 78.0184 9.576V18.544C78.0184 18.6707 77.9741 18.7783 77.8854 18.867C77.8094 18.9557 77.7017 19 77.5624 19H75.9854ZM84.5292 19C83.3765 19 82.5088 18.7023 81.9262 18.107C81.3562 17.499 81.0712 16.6123 81.0712 15.447V11.134H79.5702C79.4435 11.134 79.3358 11.0897 79.2472 11.001C79.1585 10.8997 79.1142 10.7857 79.1142 10.659V9.576C79.1142 9.44933 79.1585 9.34167 79.2472 9.253C79.3358 9.16433 79.4435 9.12 79.5702 9.12H81.0712V5.966C81.0712 5.82667 81.1155 5.719 81.2042 5.643C81.2928 5.55433 81.4005 5.51 81.5272 5.51H83.0662C83.2055 5.51 83.3132 5.55433 83.3892 5.643C83.4778 5.719 83.5222 5.82667 83.5222 5.966V9.12H85.8972C86.0365 9.12 86.1442 9.16433 86.2202 9.253C86.3088 9.329 86.3532 9.43667 86.3532 9.576V10.659C86.3532 10.7983 86.3088 10.9123 86.2202 11.001C86.1315 11.0897 86.0238 11.134 85.8972 11.134H83.5222V15.257C83.5222 15.8017 83.6172 16.2133 83.8072 16.492C83.9972 16.7707 84.3138 16.91 84.7572 16.91H86.0682C86.1948 16.91 86.3025 16.9543 86.3912 17.043C86.4798 17.1317 86.5242 17.2393 86.5242 17.366V18.544C86.5242 18.6707 86.4798 18.7783 86.3912 18.867C86.3152 18.9557 86.2075 19 86.0682 19H84.5292ZM89.5207 22.61C89.4193 22.61 89.3307 22.572 89.2547 22.496C89.1787 22.42 89.1407 22.3313 89.1407 22.23C89.1407 22.116 89.166 22.0147 89.2167 21.926L90.6987 18.411L87.0507 9.804C87 9.69 86.9747 9.60133 86.9747 9.538C86.9873 9.424 87.0317 9.329 87.1077 9.253C87.1837 9.16433 87.2787 9.12 87.3927 9.12H88.9317C89.1723 9.12 89.3433 9.24033 89.4447 9.481L91.9717 15.694L94.5747 9.481C94.676 9.24033 94.847 9.12 95.0877 9.12H96.6077C96.709 9.12 96.7977 9.158 96.8737 9.234C96.9623 9.31 97.0067 9.39867 97.0067 9.5C97.0067 9.58867 96.9813 9.69 96.9307 9.804L91.5537 22.249C91.4397 22.4897 91.2623 22.61 91.0217 22.61H89.5207Z"
    fill="#2E384D"
  />
  <path
    fill-rule="evenodd"
    clip-rule="evenodd"
    d="M14 0V9.33333C14 17.0653 7.73199 23.3333 0 23.3333L0 14C0 6.26801 6.26801 0 14 0Z"
    fill="#2CC2A5"
  />
  <path
    fill-rule="evenodd"
    clip-rule="evenodd"
    d="M21.1362 5.78805L17.944 14.5585C15.2995 21.8242 7.26569 25.5704 0 22.9259L3.19219 14.1555C5.83668 6.88978 13.8705 3.14356 21.1362 5.78805Z"
    fill="#2E5BFF"
  />
</svg>
