<?xml version="1.0" standalone="no"?>
<!DOCTYPE svg PUBLIC "-//W3C//DTD SVG 20010904//EN"
 "http://www.w3.org/TR/2001/REC-SVG-20010904/DTD/svg10.dtd">
<svg version="1.0" xmlns="http://www.w3.org/2000/svg"
 width="768.000000pt" height="768.000000pt" viewBox="0 0 768.000000 768.000000"
 preserveAspectRatio="xMidYMid meet">
<metadata>
Created by potrace 1.11, written by Peter Selinger 2001-2013
</metadata>
<g transform="translate(0.000000,768.000000) scale(0.100000,-0.100000)"
fill="#000000" stroke="none">
<path d="M4537 7674 c-1 -1 -40 -5 -87 -8 -47 -3 -101 -8 -120 -10 -19 -3 -60
-7 -91 -11 -31 -3 -65 -7 -75 -9 -11 -2 -39 -7 -64 -11 -90 -14 -135 -22 -135
-25 0 -1 -11 -3 -25 -4 -35 -4 -76 -13 -172 -37 -46 -11 -91 -22 -101 -24 -10
-2 -27 -7 -37 -10 -10 -3 -27 -8 -37 -10 -10 -2 -46 -12 -80 -23 -34 -11 -65
-17 -68 -14 -3 3 -5 -1 -5 -8 0 -7 -3 -11 -6 -8 -9 9 -400 -134 -444 -163 -8
-5 -24 -12 -35 -16 -19 -6 -293 -143 -325 -162 -54 -33 -173 -101 -177 -101
-2 0 -9 -5 -16 -10 -7 -6 -65 -46 -130 -89 -65 -43 -129 -88 -143 -100 -13
-11 -27 -21 -30 -21 -3 0 -29 -19 -58 -42 -29 -24 -68 -55 -87 -70 -19 -14
-44 -35 -55 -45 -12 -10 -43 -36 -70 -58 -108 -89 -470 -462 -524 -539 -8 -12
-20 -27 -28 -35 -29 -30 -163 -212 -239 -326 -115 -173 -175 -275 -245 -415
-18 -36 -36 -66 -40 -68 -5 -2 -8 -11 -8 -21 0 -9 -4 -21 -9 -27 -11 -10 -118
-247 -127 -279 -1 -5 -14 -38 -27 -72 -14 -35 -22 -63 -19 -63 4 0 2 -4 -4 -8
-10 -7 -108 -301 -107 -322 0 -3 -3 -15 -8 -28 -5 -12 -11 -33 -13 -45 -3 -12
-19 -79 -36 -150 -16 -70 -29 -131 -29 -135 1 -4 0 -10 -1 -14 -5 -14 -6 -23
-15 -78 -5 -30 -9 -57 -10 -60 -6 -22 -21 -135 -30 -230 -3 -30 -8 -75 -12
-100 -3 -25 -8 -790 -10 -1701 l-4 -1657 123 4 c68 2 151 6 185 8 35 2 86 -3
115 -11 68 -18 226 -53 258 -58 14 -2 50 -9 80 -14 30 -6 71 -13 90 -15 19 -3
51 -7 70 -10 19 -4 51 -8 70 -11 34 -4 54 -6 228 -22 89 -7 586 -7 652 1 25 3
70 8 100 11 30 3 71 7 90 10 19 2 53 7 75 10 70 8 108 15 195 31 47 9 96 18
110 21 14 2 45 9 70 14 25 6 52 12 60 14 38 8 284 76 291 81 5 3 17 7 26 9 54
10 325 112 438 164 33 16 77 34 98 42 20 7 37 17 37 21 0 4 5 8 11 8 16 0 137
62 294 150 101 57 277 170 287 185 5 6 8 6 8 0 0 -7 3 -7 8 0 4 6 48 39 97 75
50 36 97 70 105 77 98 78 163 131 198 161 61 51 390 378 431 427 18 22 48 58
67 80 42 50 91 112 124 155 14 18 31 39 38 46 6 7 12 15 12 18 0 5 130 190
149 212 5 7 7 15 4 18 -4 3 -2 6 4 6 6 0 16 13 23 30 7 16 16 30 21 30 5 0 9
6 9 13 0 8 14 33 30 55 17 23 28 42 24 42 -3 0 4 12 14 28 25 34 158 293 196
382 16 36 37 83 47 105 23 54 59 147 109 285 23 63 48 133 57 155 8 22 51 139
94 260 44 121 83 229 88 240 5 11 23 61 41 110 17 50 43 122 57 160 13 39 29
81 35 95 6 14 21 54 33 90 13 36 42 117 65 180 23 63 43 120 44 126 1 7 8 19
15 28 7 9 11 16 8 16 -3 0 1 16 9 35 8 19 11 35 8 35 -4 0 -2 6 3 13 5 6 18
35 27 62 10 28 24 64 32 82 8 17 14 35 14 39 0 8 38 114 65 184 8 19 39 103
69 185 87 240 187 516 208 574 11 30 16 57 11 60 -4 4 -33 15 -63 25 -30 10
-62 20 -70 24 -21 7 -21 8 -55 17 -16 4 -34 10 -40 14 -5 3 -14 6 -20 6 -5 1
-30 7 -55 14 -25 7 -49 14 -55 15 -5 1 -16 5 -23 10 -7 4 -16 6 -18 3 -3 -3
-26 2 -52 10 -26 8 -58 17 -72 19 -41 8 -63 13 -90 19 -14 3 -37 7 -52 10 -15
2 -31 6 -35 8 -4 3 -31 7 -58 10 -28 3 -57 8 -65 11 -15 5 -68 12 -155 21 -27
3 -68 8 -90 10 -117 14 -255 20 -475 19 -268 -1 -417 -10 -606 -40 -17 -3 -47
-6 -66 -8 -20 -2 -41 -7 -46 -10 -7 -4 -11 8 -10 33 0 21 -3 44 -6 50 -4 6 -3
11 3 11 6 0 6 11 1 30 -5 17 -5 30 0 30 5 0 5 13 0 29 -4 15 -4 34 0 42 5 7 5
20 0 29 -4 8 -4 22 0 31 5 8 5 20 1 27 -4 7 -4 35 -1 62 4 28 3 50 -1 50 -4 0
-4 14 1 30 5 17 6 30 2 30 -4 0 -7 16 -7 35 0 19 3 35 7 35 4 0 3 14 -2 30 -5
17 -5 30 0 30 5 0 5 13 0 30 -5 17 -5 30 0 30 5 0 5 13 0 30 -5 17 -5 30 0 30
5 0 5 13 0 30 -5 17 -5 30 0 30 5 0 5 13 0 29 -4 15 -4 34 0 42 5 7 5 20 0 29
-4 8 -4 22 0 31 5 8 5 20 1 27 -4 7 -4 35 -1 62 4 28 3 50 -1 50 -4 0 -4 14 1
30 5 17 6 30 2 30 -4 0 -7 16 -7 35 0 19 3 35 7 35 4 0 3 14 -2 30 -5 17 -5
30 0 30 5 0 5 13 0 30 -5 17 -5 30 0 30 5 0 5 13 0 30 -5 17 -5 30 0 30 5 0 5
13 0 30 -5 17 -5 30 0 30 5 0 5 13 0 29 -4 15 -4 34 0 42 5 7 6 17 4 21 -10
16 -13 48 -4 48 5 0 5 13 0 29 -4 16 -5 32 -2 36 5 5 -256 4 -261 -1z"/>
</g>
</svg>
