<svg width="24" height="24" viewBox="0 0 24 24" fill="none" xmlns="http://www.w3.org/2000/svg">
<path fill-rule="evenodd" clip-rule="evenodd" d="M13.9531 2H10.0469C9.72328 2 9.46094 2.31231 9.46094 2.69754V21.2987C9.46094 21.684 9.72328 21.9963 10.0469 21.9963H13.9531C14.2767 21.9963 14.5391 21.684 14.5391 21.2987V2.69754C14.5391 2.31231 14.2767 2 13.9531 2ZM13.3672 20.6012H10.6328V13.6257H13.3672V20.6012ZM13.3672 12.2307H10.6328V3.39509H13.3672V12.2307ZM6.49219 10.3705H2.58594C2.26234 10.3705 2 10.6828 2 11.0681V21.2987C2 21.684 2.26234 21.9963 2.58594 21.9963H6.49219C6.81578 21.9963 7.07812 21.684 7.07812 21.2987V11.0681C7.07812 10.6828 6.81578 10.3705 6.49219 10.3705ZM3.17188 20.6012H5.90625V18.276H3.17188V20.6012ZM5.90625 16.881H3.17188V11.7656H5.90625V16.881ZM17.5078 10.3705H21.4141C21.7377 10.3705 22 10.6828 22 11.0681V21.2987C22 21.684 21.7377 21.9963 21.4141 21.9963H17.5078C17.1842 21.9963 16.9219 21.684 16.9219 21.2987V11.0681C16.9219 10.6828 17.1842 10.3705 17.5078 10.3705ZM20.8281 20.6012H18.0938V18.276H20.8281V20.6012ZM18.0938 16.881H20.8281V11.7656H18.0938V16.881Z" fill="#BFC5D2"/>
<mask id="mask0" mask-type="alpha" maskUnits="userSpaceOnUse" x="2" y="2" width="20" height="20">
<path fill-rule="evenodd" clip-rule="evenodd" d="M13.9531 2H10.0469C9.72328 2 9.46094 2.31231 9.46094 2.69754V21.2987C9.46094 21.684 9.72328 21.9963 10.0469 21.9963H13.9531C14.2767 21.9963 14.5391 21.684 14.5391 21.2987V2.69754C14.5391 2.31231 14.2767 2 13.9531 2ZM13.3672 20.6012H10.6328V13.6257H13.3672V20.6012ZM13.3672 12.2307H10.6328V3.39509H13.3672V12.2307ZM6.49219 10.3705H2.58594C2.26234 10.3705 2 10.6828 2 11.0681V21.2987C2 21.684 2.26234 21.9963 2.58594 21.9963H6.49219C6.81578 21.9963 7.07812 21.684 7.07812 21.2987V11.0681C7.07812 10.6828 6.81578 10.3705 6.49219 10.3705ZM3.17188 20.6012H5.90625V18.276H3.17188V20.6012ZM5.90625 16.881H3.17188V11.7656H5.90625V16.881ZM17.5078 10.3705H21.4141C21.7377 10.3705 22 10.6828 22 11.0681V21.2987C22 21.684 21.7377 21.9963 21.4141 21.9963H17.5078C17.1842 21.9963 16.9219 21.684 16.9219 21.2987V11.0681C16.9219 10.6828 17.1842 10.3705 17.5078 10.3705ZM20.8281 20.6012H18.0938V18.276H20.8281V20.6012ZM18.0938 16.881H20.8281V11.7656H18.0938V16.881Z" fill="white"/>
</mask>
<g mask="url(#mask0)">
</g>
</svg>
