<svg width="24" height="24" viewBox="0 0 24 24" fill="none" xmlns="http://www.w3.org/2000/svg">
<path fill-rule="evenodd" clip-rule="evenodd" d="M21.4836 3.9089L15.2874 2.03087C15.2702 2.03087 15.253 2.03087 15.253 2.03087C15.2186 2.03087 15.2014 2.01364 15.167 2.01364C15.1325 2.01364 15.1153 2.01364 15.0809 2.01364C15.0465 2.01364 15.0293 2.01364 14.9948 2.01364C14.9604 2.01364 14.9432 2.01364 14.9088 2.03087C14.8916 2.03087 14.8744 2.03087 14.8744 2.03087L8.90189 3.85721L2.91222 2.03087C2.70568 1.96195 2.46472 2.01364 2.2926 2.13425C2.12048 2.27208 2 2.47884 2 2.70282V19.4156C2 19.7257 2.20654 20.0014 2.49914 20.0875L8.69535 21.9655C8.7642 21.9828 8.83305 22 8.90189 22C8.97074 22 9.03959 21.9828 9.10843 21.9655L15.0981 20.1564L21.0878 21.9655C21.1566 21.9828 21.2255 22 21.2943 22C21.4492 22 21.5869 21.9483 21.7074 21.8622C21.8795 21.7243 22 21.5176 22 21.2936V4.58085C22 4.27072 21.7935 4.01228 21.4836 3.9089ZM8.19621 20.3632L3.41136 18.9159V3.65045L8.19621 5.09774V20.3632ZM14.3924 18.8987L9.60757 20.3632V5.11497L14.3924 3.65045V18.8987ZM20.5886 20.3632L15.8038 18.9159V3.65045L20.5886 5.09774V20.3632Z" fill="#BFC5D2"/>
<mask id="mask0" mask-type="alpha" maskUnits="userSpaceOnUse" x="2" y="2" width="20" height="20">
<path fill-rule="evenodd" clip-rule="evenodd" d="M21.4836 3.9089L15.2874 2.03087C15.2702 2.03087 15.253 2.03087 15.253 2.03087C15.2186 2.03087 15.2014 2.01364 15.167 2.01364C15.1325 2.01364 15.1153 2.01364 15.0809 2.01364C15.0465 2.01364 15.0293 2.01364 14.9948 2.01364C14.9604 2.01364 14.9432 2.01364 14.9088 2.03087C14.8916 2.03087 14.8744 2.03087 14.8744 2.03087L8.90189 3.85721L2.91222 2.03087C2.70568 1.96195 2.46472 2.01364 2.2926 2.13425C2.12048 2.27208 2 2.47884 2 2.70282V19.4156C2 19.7257 2.20654 20.0014 2.49914 20.0875L8.69535 21.9655C8.7642 21.9828 8.83305 22 8.90189 22C8.97074 22 9.03959 21.9828 9.10843 21.9655L15.0981 20.1564L21.0878 21.9655C21.1566 21.9828 21.2255 22 21.2943 22C21.4492 22 21.5869 21.9483 21.7074 21.8622C21.8795 21.7243 22 21.5176 22 21.2936V4.58085C22 4.27072 21.7935 4.01228 21.4836 3.9089ZM8.19621 20.3632L3.41136 18.9159V3.65045L8.19621 5.09774V20.3632ZM14.3924 18.8987L9.60757 20.3632V5.11497L14.3924 3.65045V18.8987ZM20.5886 20.3632L15.8038 18.9159V3.65045L20.5886 5.09774V20.3632Z" fill="white"/>
</mask>
<g mask="url(#mask0)">
</g>
</svg>
