<svg width="24" height="24" viewBox="0 0 24 24" fill="none" xmlns="http://www.w3.org/2000/svg">
<path fill-rule="evenodd" clip-rule="evenodd" d="M21.4279 8.73191L18.602 4.73088C18.2687 4.25619 17.8308 4 17.3781 4H16.7214H11.6965H11.0746C10.5771 4 10.1045 4.30893 9.76617 4.85898L7.37811 8.73191C7.22886 8.98057 7.01493 9.11619 6.79602 9.12373H4.65672C3.18905 9.11619 2 10.917 2 13.1323V14.7071C2 16.199 2.801 17.4121 3.79104 17.4121H4.0597C4.41791 19.3109 5.72139 20.4035 6.97512 19.861C7.75622 19.5219 8.36816 18.5951 8.59204 17.4121H15.4279C15.7861 19.3109 17.0896 20.4035 18.3433 19.861C19.1244 19.5219 19.7363 18.5951 19.9602 17.4121H20.204C21.1891 17.4196 21.995 16.2065 22 14.7146V10.7136C21.995 9.9601 21.7861 9.24429 21.4279 8.73191ZM17.3682 5.50698C17.5771 5.50698 17.7761 5.62754 17.9204 5.83851L20.2338 9.12373H17.5075L16.403 5.50698H17.3682ZM16.4179 9.12373H13.6368V5.50698H15.3134L16.4179 9.12373ZM6.31841 18.5047C5.56716 18.5047 4.95522 17.5779 4.95522 16.4401C4.95522 15.3023 5.56716 14.3755 6.31841 14.3755C7.06965 14.3755 7.68159 15.3023 7.68159 16.4401C7.68159 17.5854 7.06965 18.5047 6.31841 18.5047ZM12.6418 15.8976H8.65174C8.46269 13.9461 7.26368 12.6048 5.97512 12.8912C4.95025 13.1248 4.14428 14.3454 3.99005 15.8976H3.79104C3.35323 15.9051 2.99502 15.3702 2.99005 14.7071V13.1323C2.99005 11.7459 3.73632 10.6232 4.65174 10.6232H6.79602C6.83085 10.6232 6.8607 10.6232 6.89552 10.6156C6.91542 10.6156 6.93035 10.6232 6.95025 10.6232H12.6418V15.8976ZM12.6418 9.12373H8.50249L10.4925 5.89879C10.6418 5.65014 10.8557 5.51451 11.0746 5.50698H12.6418V9.12373ZM15.7264 4H12.6915H15.7264ZM17.6915 18.5047C16.9403 18.5047 16.3284 17.5779 16.3284 16.4401C16.3284 15.3023 16.9403 14.3755 17.6915 14.3755C18.4428 14.3755 19.0547 15.3023 19.0547 16.4401C19.0547 17.5854 18.4428 18.5047 17.6915 18.5047ZM21.005 14.7071C21 15.3702 20.6418 15.9051 20.209 15.9051H20.0249C19.8358 13.9536 18.6368 12.6048 17.3483 12.8987C16.3234 13.1323 15.5174 14.3529 15.3632 15.9051H13.6368V10.6307H20.9154C20.9453 10.6307 20.9701 10.6232 21 10.6156C21 10.6533 21.005 10.6835 21.005 10.7211V14.7071Z" fill="#BFC5D2"/>
<mask id="mask0" mask-type="alpha" maskUnits="userSpaceOnUse" x="2" y="4" width="20" height="16">
<path fill-rule="evenodd" clip-rule="evenodd" d="M21.4279 8.73191L18.602 4.73088C18.2687 4.25619 17.8308 4 17.3781 4H16.7214H11.6965H11.0746C10.5771 4 10.1045 4.30893 9.76617 4.85898L7.37811 8.73191C7.22886 8.98057 7.01493 9.11619 6.79602 9.12373H4.65672C3.18905 9.11619 2 10.917 2 13.1323V14.7071C2 16.199 2.801 17.4121 3.79104 17.4121H4.0597C4.41791 19.3109 5.72139 20.4035 6.97512 19.861C7.75622 19.5219 8.36816 18.5951 8.59204 17.4121H15.4279C15.7861 19.3109 17.0896 20.4035 18.3433 19.861C19.1244 19.5219 19.7363 18.5951 19.9602 17.4121H20.204C21.1891 17.4196 21.995 16.2065 22 14.7146V10.7136C21.995 9.9601 21.7861 9.24429 21.4279 8.73191ZM17.3682 5.50698C17.5771 5.50698 17.7761 5.62754 17.9204 5.83851L20.2338 9.12373H17.5075L16.403 5.50698H17.3682ZM16.4179 9.12373H13.6368V5.50698H15.3134L16.4179 9.12373ZM6.31841 18.5047C5.56716 18.5047 4.95522 17.5779 4.95522 16.4401C4.95522 15.3023 5.56716 14.3755 6.31841 14.3755C7.06965 14.3755 7.68159 15.3023 7.68159 16.4401C7.68159 17.5854 7.06965 18.5047 6.31841 18.5047ZM12.6418 15.8976H8.65174C8.46269 13.9461 7.26368 12.6048 5.97512 12.8912C4.95025 13.1248 4.14428 14.3454 3.99005 15.8976H3.79104C3.35323 15.9051 2.99502 15.3702 2.99005 14.7071V13.1323C2.99005 11.7459 3.73632 10.6232 4.65174 10.6232H6.79602C6.83085 10.6232 6.8607 10.6232 6.89552 10.6156C6.91542 10.6156 6.93035 10.6232 6.95025 10.6232H12.6418V15.8976ZM12.6418 9.12373H8.50249L10.4925 5.89879C10.6418 5.65014 10.8557 5.51451 11.0746 5.50698H12.6418V9.12373ZM15.7264 4H12.6915H15.7264ZM17.6915 18.5047C16.9403 18.5047 16.3284 17.5779 16.3284 16.4401C16.3284 15.3023 16.9403 14.3755 17.6915 14.3755C18.4428 14.3755 19.0547 15.3023 19.0547 16.4401C19.0547 17.5854 18.4428 18.5047 17.6915 18.5047ZM21.005 14.7071C21 15.3702 20.6418 15.9051 20.209 15.9051H20.0249C19.8358 13.9536 18.6368 12.6048 17.3483 12.8987C16.3234 13.1323 15.5174 14.3529 15.3632 15.9051H13.6368V10.6307H20.9154C20.9453 10.6307 20.9701 10.6232 21 10.6156C21 10.6533 21.005 10.6835 21.005 10.7211V14.7071Z" fill="white"/>
</mask>
<g mask="url(#mask0)">
</g>
</svg>
