<?xml version="1.0" encoding="UTF-8"?>
<svg width="20px" height="16px" viewBox="0 0 20 16" version="1.1" xmlns="http://www.w3.org/2000/svg" xmlns:xlink="http://www.w3.org/1999/xlink">
    <!-- Generator: Sketch 53.2 (72643) - https://sketchapp.com -->
    <title>Nav/Menu/List  Copy 5</title>
    <desc>Created with Sketch.</desc>
    <defs>
        <path d="M3.52380989,18.5269898 L3.52380989,6.13249473 L12.0035183,12.9769449 L20.4761919,6.13249473 L20.4761919,18.5269898 L3.52380989,18.5269898 Z M19.1428571,5.48995277 L12.0476124,11.0772544 L4.85714286,5.48995277 L19.1428571,5.48995277 Z M20.1818182,4 L3.81818182,4 C2.81545455,4 2,4.79733333 2,5.77777778 L2,18.2222222 C2,19.2026667 2.81545455,20 3.81818182,20 L20.1818182,20 C21.1845455,20 22,19.2026667 22,18.2222222 L22,5.77777778 C22,4.79733333 21.1845455,4 20.1818182,4 L20.1818182,4 Z" id="path-1"></path>
    </defs>
    <g id="Symbols-Page" stroke="none" stroke-width="1" fill="none" fill-rule="evenodd">
        <g id="Component/Navigation/Left-Bar" transform="translate(-30.000000, -476.000000)">
            <g id="Group" transform="translate(0.000000, 176.000000)">
                <g id="Nav/Menu/Small" transform="translate(0.000000, 280.000000)">
                    <g id="icon-Chat" transform="translate(28.000000, 16.000000)">
                        <mask id="mask-2" fill="white">
                            <use xlink:href="#path-1"></use>
                        </mask>
                        <use id="Mail" fill="#BFC5D2" fill-rule="evenodd" xlink:href="#path-1"></use>
                    </g>
                </g>
            </g>
        </g>
    </g>
</svg>