<?xml version="1.0" encoding="UTF-8"?>
<svg width="30px" height="30px" viewBox="0 0 30 30" version="1.1" xmlns="http://www.w3.org/2000/svg" xmlns:xlink="http://www.w3.org/1999/xlink">
    <!-- Generator: Sketch 55 (78076) - https://sketchapp.com -->
    <title>Element/Icon Logo/Invision</title>
    <desc>Created with Sketch.</desc>
    <g id="Element/Icon-Logo/Invision" stroke="none" stroke-width="1" fill="none" fill-rule="evenodd">
        <g id="network-(1)" transform="translate(3.000000, 5.000000)" fill="#FF427A" fill-rule="nonzero">
            <path d="M22.4615668,14.852671 C22.4615668,14.852671 21.6947281,16.6023926 20.8099355,16.916494 C19.9251429,17.2305512 19.1612903,16.5574894 20.6280553,13.2377917 C22.0952184,9.91764055 21.2700276,7.04614562 20.3532829,6.14883318 C19.4360627,5.25152074 16.960988,4.98236682 15.5858433,5.79004977 C14.2102673,6.59751152 13.2891982,7.74193548 13.2891982,7.74193548 L13.7315945,5.34137143 L8.34288664,5.43104516 L7.51772903,8.39213641 L9.90122765,8.39213641 C9.90122765,8.39213641 7.70092535,14.911023 7.51772903,15.0613493 C7.33454378,15.2117198 5.76846083,16.3824774 5.10486636,16.6023926 C4.44127189,16.8227502 3.66707834,17.0063447 4.03385806,15.5707244 C4.40064885,14.1351041 6.60095115,5.34137143 6.60095115,5.34137143 L0.549102304,5.34137143 L0,8.21264516 L0,8.39213641 L2.20034654,8.39213641 C2.20034654,8.39213641 0.459705069,15.2117198 0.366801843,16.0191705 C0.273489401,16.8270415 0.459705069,18.496424 3.11408295,18.9802728 C5.76846083,19.464553 7.70092535,16.916494 7.70092535,16.916494 L7.33454378,18.9802728 L10.8184147,18.9802728 C10.8184147,18.9802728 12.6256037,11.9447005 13.2891982,10.3963134 C13.9527926,8.84792627 16.1647742,7.49398341 17.270765,8.39213641 C18.3767558,9.29032258 17.8777659,10.7251134 17.4193548,11.8915797 C16.960988,13.0580461 15.943576,16.1474654 16.8283687,17.6958525 C17.7131613,19.2442396 20.6280553,19.9078341 22.2783705,17.9935521 C23.4643134,16.6023926 23.9067097,15.2626728 23.9067097,15.2626728 L22.4615668,14.852671 Z" id="Shape"></path>
            <circle id="Oval" cx="4.8836682" cy="1.76958525" r="1.76958525"></circle>
        </g>
    </g>
</svg>