<?xml version="1.0" encoding="UTF-8"?>
<svg width="20px" height="20px" viewBox="0 0 20 20" version="1.1" xmlns="http://www.w3.org/2000/svg" xmlns:xlink="http://www.w3.org/1999/xlink">
    <!-- Generator: Sketch 53.2 (72643) - https://sketchapp.com -->
    <title>Nav/Menu/List  Copy 4</title>
    <desc>Created with Sketch.</desc>
    <defs>
        <path d="M21.4836489,3.90889739 L15.2874355,2.03086864 C15.2702238,2.03086864 15.253012,2.03086864 15.253012,2.03086864 C15.2185886,2.03086864 15.2013769,2.01363902 15.1669535,2.01363902 C15.1325301,2.01363902 15.1153184,2.01363902 15.080895,2.01363902 C15.0464716,2.01363902 15.0292599,2.01363902 14.9948365,2.01363902 C14.9604131,2.01363902 14.9432014,2.01363902 14.908778,2.03086864 C14.8915663,2.03086864 14.8743546,2.03086864 14.8743546,2.03086864 L8.90189329,3.85720852 L2.91222031,2.03086864 C2.70567986,1.96195016 2.46471601,2.01363902 2.29259897,2.13424637 C2.12048193,2.27208334 2,2.4788388 2,2.70282388 L2,19.4155568 C2,19.72569 2.20654045,20.0013639 2.49913941,20.087512 L8.69535284,21.9655408 C8.76419966,21.9827704 8.83304647,22 8.90189329,22 C8.9707401,22 9.03958692,21.9827704 9.10843373,21.9655408 L15.0981067,20.1564305 L21.0877797,21.9655408 C21.1566265,21.9827704 21.2254733,22 21.2943201,22 C21.4492255,22 21.5869191,21.9483111 21.707401,21.862163 C21.8795181,21.7243261 22,21.5175706 22,21.2935855 L22,4.58085263 C22,4.27071944 21.7934596,4.01227512 21.4836489,3.90889739 Z M8.19621343,20.363186 L3.41135972,18.9158977 L3.41135972,3.65045307 L8.19621343,5.09774128 L8.19621343,20.363186 Z M14.3924269,18.8986681 L9.60757315,20.363186 L9.60757315,5.1149709 L14.3924269,3.65045307 L14.3924269,18.8986681 Z M20.5886403,20.363186 L15.8037866,18.9158977 L15.8037866,3.65045307 L20.5886403,5.09774128 L20.5886403,20.363186 Z" id="path-1"></path>
    </defs>
    <g id="Symbols-Page" stroke="none" stroke-width="1" fill="none" fill-rule="evenodd">
        <g id="Component/Navigation/Left-Bar" transform="translate(-30.000000, -418.000000)">
            <g id="Group" transform="translate(0.000000, 176.000000)">
                <g id="Nav/Menu/Small" transform="translate(0.000000, 224.000000)">
                    <g id="icon-map" transform="translate(28.000000, 16.000000)">
                        <mask id="mask-2" fill="white">
                            <use xlink:href="#path-1"></use>
                        </mask>
                        <use id="Shape" fill="#BFC5D2" fill-rule="evenodd" xlink:href="#path-1"></use>
                    </g>
                </g>
            </g>
        </g>
    </g>
</svg>