<?xml version="1.0" encoding="UTF-8"?>
<svg width="20px" height="20px" viewBox="0 0 20 20" version="1.1" xmlns="http://www.w3.org/2000/svg" xmlns:xlink="http://www.w3.org/1999/xlink">
    <!-- Generator: Sketch 53.2 (72643) - https://sketchapp.com -->
    <title>Nav/Menu/List  Copy 6</title>
    <desc>Created with Sketch.</desc>
    <defs>
        <path d="M20.976282,9.90051722 L19.5724883,9.66237366 C19.4262598,9.19026449 19.2382518,8.73486714 19.0084641,8.30035958 L19.8356996,7.14306542 C20.1866481,6.65006646 20.1323346,5.97741533 19.702005,5.55126369 L18.4569737,4.30623242 C18.2230081,4.07226681 17.9138393,3.94275014 17.5837807,3.94275014 C17.3247473,3.94275014 17.0782478,4.02213133 16.86935,4.17253779 L15.7078778,4.99977333 C15.2566585,4.76162976 14.7845493,4.56526577 14.2957283,4.41903727 L14.0617627,3.03195545 C13.9614917,2.43450756 13.447603,2 12.8417992,2 L11.0828791,2 C10.4770753,2 9.96318658,2.43450756 9.86291561,3.03195545 L9.62059409,4.45246093 C9.15266287,4.59868943 8.69726553,4.79087547 8.26275797,5.02484107 L7.11381972,4.19760553 C6.90492185,4.04719907 6.65424441,3.96781788 6.39521106,3.96781788 C6.06515244,3.96781788 5.75180564,4.09733456 5.52201799,4.33130016 L4.27280876,5.57633144 C3.84665712,6.00248308 3.78816572,6.6751342 4.13911413,7.16813316 L4.97470559,8.34213916 C4.74491794,8.78082467 4.56108782,9.23622202 4.41903727,9.70833119 L3.03195545,9.9422968 C2.43450756,10.0425678 2,10.5564565 2,11.1622603 L2,12.9211803 C2,13.5269841 2.43450756,14.0408729 3.03195545,14.1411439 L4.45246093,14.3834654 C4.59868943,14.8513966 4.79087547,15.306794 5.02484107,15.7413015 L4.20178349,16.8860618 C3.85083508,17.3790608 3.90514852,18.0517119 4.33547812,18.4778635 L5.58050939,19.7228948 C5.814475,19.9568604 6.12364384,20.0863771 6.45370247,20.0863771 C6.71273582,20.0863771 6.9592353,20.0069959 7.16813316,19.8565894 L8.34213916,19.020998 C8.76411284,19.2424297 9.20697632,19.4220819 9.66237366,19.5641324 L9.89633927,20.9679261 C9.99661024,21.565374 10.510499,21.9998815 11.1163028,21.9998815 L12.8794008,21.9998815 C13.4852046,21.9998815 13.9990933,21.565374 14.0993643,20.9679261 L14.3375079,19.5641324 C14.809617,19.4179039 15.2650144,19.2298958 15.6995219,19.0001082 L16.8568161,19.8273437 C17.065714,19.9777502 17.3163914,20.0571314 17.5754248,20.0571314 L17.5754248,20.0571314 C17.9054834,20.0571314 18.2146522,19.9276147 18.4486178,19.6936491 L19.6936491,18.4486178 C20.1198007,18.0224662 20.1782921,17.3498151 19.8273437,16.8568161 L19.0001082,15.695344 C19.2298958,15.2566585 19.4220819,14.8012611 19.5641324,14.3333299 L20.9679261,14.0993643 C21.565374,13.9990933 21.9998815,13.4852046 21.9998815,12.8794008 L21.9998815,11.1204808 C22.0082374,10.5146769 21.5737299,10.0007882 20.976282,9.90051722 Z M20.880189,12.8794008 C20.880189,12.9337142 20.8425874,12.9796717 20.7882739,12.9880277 L19.0335318,13.2804847 C18.8121001,13.3180863 18.6366259,13.4810266 18.5823125,13.6941024 C18.4235501,14.3082622 18.1812286,14.8973541 17.8553479,15.4446665 C17.742543,15.6368526 17.750899,15.8749961 17.8804156,16.0588263 L18.9123711,17.5127554 C18.9416168,17.554535 18.9374388,17.6172043 18.8998372,17.6548059 L17.6548059,18.8998372 C17.6255602,18.9290829 17.5963145,18.9332609 17.5754248,18.9332609 C17.550357,18.9332609 17.5294672,18.924905 17.5127554,18.9123711 L16.0630042,17.8804156 C15.8833521,17.750899 15.6410305,17.742543 15.4488445,17.8553479 C14.9015321,18.1812286 14.3124401,18.4235501 13.6982804,18.5823125 C13.4810266,18.6366259 13.3180863,18.8162781 13.2846626,19.0335318 L12.9880277,20.7882739 C12.9796717,20.8425874 12.9337142,20.880189 12.8794008,20.880189 L11.1204808,20.880189 C11.0661673,20.880189 11.0202098,20.8425874 11.0118539,20.7882739 L10.7193969,19.0335318 C10.6817952,18.8121001 10.5188549,18.6366259 10.3057791,18.5823125 C9.70833119,18.427728 9.13177308,18.1895845 8.59281659,17.8804156 C8.50507949,17.8302802 8.40480852,17.8052124 8.3087155,17.8052124 C8.19591065,17.8052124 8.07892785,17.8386361 7.98283483,17.9096613 L6.52054978,18.9499727 C6.49966,18.9625066 6.47877021,18.9708625 6.45788042,18.9708625 C6.44116859,18.9708625 6.40774493,18.9666845 6.37849923,18.9374388 L5.13346796,17.6924076 C5.09586635,17.6548059 5.09168839,17.5963145 5.12093409,17.550357 L6.14871158,16.1089617 C6.27822826,15.9251316 6.28658417,15.6828101 6.17377933,15.4906241 C5.84789866,14.9474896 5.59722122,14.3583976 5.43845884,13.7442379 C5.37996744,13.5311621 5.20449324,13.3682218 4.98723946,13.3306202 L3.21996353,13.0298072 C3.16565008,13.0214513 3.12804847,12.9754938 3.12804847,12.9211803 L3.12804847,11.1622603 C3.12804847,11.1079469 3.16565008,11.0619893 3.21996353,11.0536334 L4.96217171,10.7611764 C5.18360345,10.7235748 5.36325561,10.5606345 5.41756906,10.3433807 C5.57215348,9.72922098 5.81029704,9.13595104 6.13199975,8.58863864 C6.2448046,8.3964526 6.23227073,8.15830904 6.10275405,7.97865687 L5.06244269,6.51637182 C5.03319699,6.47459225 5.03737495,6.41192289 5.07497656,6.37432128 L6.32000783,5.12929001 C6.34925353,5.1000443 6.37849923,5.09586635 6.39938902,5.09586635 C6.42445676,5.09586635 6.44534655,5.10422226 6.46205838,5.11675613 L7.90345364,6.14453363 C8.08728376,6.2740503 8.32960529,6.28240622 8.52179132,6.16960137 C9.06492577,5.8437207 9.65401774,5.59304326 10.2681775,5.43428089 C10.4812533,5.37578949 10.6441936,5.20031528 10.6817952,4.9830615 L10.9826082,3.21578557 C10.9909641,3.16147213 11.0369216,3.12387051 11.0912351,3.12387051 L12.8501551,3.12387051 C12.9044685,3.12387051 12.950426,3.16147213 12.958782,3.21578557 L13.251239,4.95799376 C13.2888406,5.17942549 13.4517809,5.35907766 13.6690347,5.4133911 C14.2999062,5.57215348 14.9015321,5.81865296 15.4613784,6.14871158 C15.6535644,6.26151643 15.891708,6.25316052 16.0755381,6.12364384 L17.5169334,5.08751043 C17.5378231,5.07497656 17.5587129,5.06662065 17.5796027,5.06662065 C17.5963145,5.06662065 17.6297382,5.0707986 17.6589839,5.1000443 L18.9040152,6.34507558 C18.9416168,6.38267719 18.9457947,6.44116859 18.916549,6.48712612 L17.8845936,7.9368773 C17.7550769,8.11652946 17.746721,8.35885099 17.8595259,8.55103702 C18.1854065,9.09834943 18.427728,9.6874414 18.5864904,10.3016011 C18.6408039,10.5188549 18.820456,10.6817952 19.0377098,10.7152189 L20.7924519,11.0118539 C20.8467653,11.0202098 20.8843669,11.0661673 20.8843669,11.1204808 L20.8843669,12.8794008 L20.880189,12.8794008 Z M12.0020297,7.68202191 C9.62059409,7.68202191 7.68619986,9.61641613 7.68619986,11.9978518 C7.68619986,14.3792874 9.62059409,16.3136817 12.0020297,16.3136817 C14.3834654,16.3136817 16.3178596,14.3792874 16.3178596,11.9978518 C16.3178596,9.61641613 14.3834654,7.68202191 12.0020297,7.68202191 Z M12.0020297,15.1856332 C10.2431097,15.1856332 8.81424833,13.7567718 8.81424833,11.9978518 C8.81424833,10.2389318 10.2431097,8.81007037 12.0020297,8.81007037 C13.7609498,8.81007037 15.1898111,10.2389318 15.1898111,11.9978518 C15.1898111,13.7567718 13.7609498,15.1856332 12.0020297,15.1856332 Z" id="path-1"></path>
    </defs>
    <g id="Symbols-Page" stroke="none" stroke-width="1" fill="none" fill-rule="evenodd">
        <g id="Component/Navigation/Left-Bar" transform="translate(-30.000000, -530.000000)">
            <g id="Group" transform="translate(0.000000, 176.000000)">
                <g id="Nav/Menu/Small" transform="translate(0.000000, 336.000000)">
                    <g id="icon-Chat-Copy" transform="translate(28.000000, 16.000000)">
                        <mask id="mask-2" fill="white">
                            <use xlink:href="#path-1"></use>
                        </mask>
                        <use id="Settings" fill="#BFC5D2" fill-rule="evenodd" xlink:href="#path-1"></use>
                    </g>
                </g>
            </g>
        </g>
    </g>
</svg>