<?xml version="1.0" encoding="UTF-8"?>
<svg width="30px" height="30px" viewBox="0 0 30 30" version="1.1" xmlns="http://www.w3.org/2000/svg" xmlns:xlink="http://www.w3.org/1999/xlink">
    <!-- Generator: Sketch 55 (78076) - https://sketchapp.com -->
    <title>Element/Icon Logo/Slack</title>
    <desc>Created with Sketch.</desc>
    <g id="Element/Icon-Logo/Slack" stroke="none" stroke-width="1" fill="none" fill-rule="evenodd">
        <g id="slack-seeklogo.com" transform="translate(4.000000, 4.000000)" fill-rule="nonzero">
            <path d="M14.2624918,1.36111475 C13.9281639,0.331983607 12.8229344,-0.231180328 11.7939836,0.103327869 C10.7648525,0.437655738 10.2016885,1.54288525 10.5361967,2.57183607 L15.6019672,18.1579344 C15.9498197,19.1192623 16.9883279,19.6595246 17.9851803,19.3726229 C19.0249508,19.0732787 19.6588033,17.9689508 19.327,16.9477541 C19.3143771,16.9088033 14.2624918,1.36111475 14.2624918,1.36111475" id="Shape" fill="#DFA22F"></path>
            <path d="M6.41318033,3.9114918 C6.07867213,2.88254099 4.97344262,2.31937705 3.9444918,2.65370492 C2.91536065,2.98803279 2.35219672,4.09326229 2.68670492,5.12239344 L7.75247541,20.7084918 C8.10032787,21.6698197 9.13883609,22.210082 10.1356885,21.923 C11.175459,21.6238361 11.8093115,20.5195082 11.4775082,19.4981311 C11.4648853,19.4593607 6.41318033,3.9114918 6.41318033,3.9114918" id="Shape" fill="#3CB187"></path>
            <path d="M20.6388853,14.2695246 C21.6680164,13.9351967 22.231,12.8299672 21.8966721,11.8008361 C21.5623443,10.7718853 20.4571147,10.2087213 19.4281639,10.5430492 L3.84206557,15.609 C2.88073771,15.9566721 2.34047541,16.9951803 2.62737705,17.9920328 C2.92672131,19.0318033 4.03104918,19.6656557 5.0522459,19.3338525 C5.09119672,19.3212295 20.6388853,14.2695246 20.6388853,14.2695246" id="Shape" fill="#CE1E5B"></path>
            <path d="M7.0904918,18.6716885 C8.10501639,18.3420492 9.41257376,17.9171967 10.8157049,17.4613279 C10.4860656,16.4468033 10.0612131,15.1390656 9.60516391,13.7357541 L5.87977049,14.9466557 L7.0904918,18.6716885" id="Shape" fill="#392538"></path>
            <path d="M14.9399836,16.1211311 C16.3483443,15.6636393 17.6573443,15.2382459 18.6651967,14.9107705 C18.3355574,13.8962459 17.9105246,12.5881475 17.4544754,11.1844754 L13.729082,12.3953771 L14.9399836,16.1211311" id="Shape" fill="#BB242A"></path>
            <path d="M18.0885082,6.42003279 C19.117459,6.08570492 19.6806229,4.98047541 19.3462951,3.95134426 C19.0119672,2.92239344 17.9067377,2.35922951 16.8776065,2.69355738 L1.2915082,7.7595082 C0.330180328,8.10718033 -0.210081967,9.14568849 0.077,10.142541 C0.376163935,11.1823115 1.4804918,11.8161639 2.50186885,11.4843607 C2.54063935,11.4717377 18.0885082,6.42003279 18.0885082,6.42003279" id="Shape" fill="#72C5CD"></path>
            <path d="M4.53939344,10.8223771 C5.55391803,10.4927377 6.86183607,10.0677049 8.26514754,9.61183609 C7.80765574,8.20329508 7.38226229,6.89429508 7.05478689,5.88626229 L3.3284918,7.09734426 L4.53939344,10.8223771" id="Shape" fill="#248C73"></path>
            <path d="M12.3887049,8.272 C13.7974262,7.81432787 15.1066065,7.38893443 16.1146393,7.06127869 C15.6569672,5.65255738 15.2315738,4.34319672 14.903918,3.33498361 L11.1778033,4.54606557 L12.3887049,8.272" id="Shape" fill="#62803A"></path>
        </g>
    </g>
</svg>